<svg xmlns="http://www.w3.org/2000/svg" width="74" height="19" viewBox="0 0 74 19" fill="none">
  <path d="M7.87709 15.5102C3.53058 15.5102 0 12.1168 0 7.73221C0 3.3552 3.49246 0 7.83896 0C10.546 0 12.9251 1.25057 14.4197 3.51533C14.9078 4.23975 15.289 5.0938 15.4263 5.95548H11.4305C10.8434 4.42276 9.49368 3.3552 7.81609 3.3552C5.39119 3.3552 3.82035 5.41407 3.82035 7.71696C3.82035 10.0198 5.39882 12.1626 7.83896 12.1626C9.51656 12.1626 10.7671 11.1103 11.4305 9.63857H15.4263C14.557 13.1692 11.4916 15.5102 7.87709 15.5102Z" fill="black"/>
  <path d="M42.6416 9.10496V15.2206H39.2864V9.26509C39.2864 8.02977 39.1262 6.77919 37.5706 6.77919C36.0761 6.77919 35.71 7.83151 35.71 9.10496V15.2206H32.3548V9.12021C32.3548 7.96876 32.0879 6.77919 30.6772 6.77919C29.1216 6.77919 28.7785 7.94589 28.7785 9.26509V15.2206H25.4233V8.11365L17.9504 18.957H14.0156L16.2346 15.7467V4.01878H19.5898V10.8283H19.689L24.3252 4.01878H28.565V5.20835H28.6031C29.2513 4.05691 30.418 3.62988 31.6914 3.62988C33.1479 3.62988 34.2383 4.3543 34.9246 5.62775C35.7329 4.3543 36.9606 3.62988 38.4781 3.62988C39.5838 3.62988 40.6361 3.95778 41.4291 4.75845C42.7026 6.0624 42.6416 7.38923 42.6416 9.10496Z" fill="black"/>
  <path d="M50.5642 15.6094C49.4128 15.6094 47.9411 15.1214 47.3539 14.0309H47.3158V15.2205H44.1055V0.282227H47.4607V4.90325C48.33 3.97294 49.4585 3.6298 50.7091 3.6298C51.5174 3.6298 52.3257 3.82806 53.073 4.17883C55.231 5.18539 56.2223 7.22901 56.2223 9.54715C56.2147 12.9252 54.0567 15.6094 50.5642 15.6094ZM50.1143 6.76386C48.5206 6.76386 47.331 8.01443 47.331 9.5929C47.331 11.1866 48.4215 12.4829 50.0609 12.4829C51.6775 12.4829 52.8671 11.2095 52.8671 9.61578C52.8671 8.07544 51.6928 6.76386 50.1143 6.76386Z" fill="black"/>
  <path d="M65.6322 15.2282V14.0157H65.594C64.9916 15.1672 63.5352 15.6095 62.3227 15.6095C58.8684 15.6095 56.6875 12.9406 56.6875 9.60823C56.6875 6.33692 58.9523 3.62988 62.3227 3.62988C63.558 3.62988 64.9306 4.09504 65.594 5.20835H65.6322V4.01878H68.9873V15.2282H65.6322ZM62.8031 6.76394C61.1636 6.76394 60.0351 8.05264 60.0351 9.65399C60.0351 11.2096 61.2475 12.483 62.8184 12.483C64.4578 12.483 65.6245 11.2325 65.6245 9.61586C65.6321 7.97639 64.4426 6.76394 62.8031 6.76394Z" fill="black"/>
  <path d="M70.543 15.2281V0.282227H73.8982V15.2281H70.543Z" fill="black"/>
</svg>
