<svg width="24" height="24" viewBox="0 0 24 24" fill="none" xmlns="http://www.w3.org/2000/svg">
<path d="M5 16H6.425L16.2 6.225L14.775 4.8L5 14.575V16ZM3 18V13.75L16.2 0.575C16.4 0.391667 16.6208 0.25 16.8625 0.15C17.1042 0.05 17.3583 0 17.625 0C17.8917 0 18.15 0.05 18.4 0.15C18.65 0.25 18.8667 0.4 19.05 0.6L20.425 2C20.625 2.18333 20.7708 2.4 20.8625 2.65C20.9542 2.9 21 3.15 21 3.4C21 3.66667 20.9542 3.92083 20.8625 4.1625C20.7708 4.40417 20.625 4.625 20.425 4.825L7.25 18H3ZM15.475 5.525L14.775 4.8L16.2 6.225L15.475 5.525Z" fill="#D1D1D1"/>
</svg>
