<svg width="116" height="47" viewBox="0 0 116 47" fill="none" xmlns="http://www.w3.org/2000/svg">
<rect width="116" height="47" rx="23.5" fill="#0B57D0"/>
<path d="M51.0492 28.224C50.3305 28.224 49.6772 28.098 49.0892 27.846C48.5012 27.5847 47.9925 27.2253 47.5632 26.768C47.1432 26.3013 46.8165 25.7507 46.5832 25.116C46.3592 24.472 46.2472 23.7627 46.2472 22.988C46.2472 22.2133 46.3592 21.5087 46.5832 20.874C46.8165 20.2393 47.1432 19.6887 47.5632 19.222C47.9925 18.746 48.5012 18.382 49.0892 18.13C49.6772 17.878 50.3305 17.752 51.0492 17.752C51.7585 17.752 52.4025 17.878 52.9812 18.13C53.5692 18.382 54.0779 18.7413 54.5072 19.208C54.9365 19.6747 55.2632 20.23 55.4872 20.874C55.7205 21.5087 55.8372 22.2133 55.8372 22.988C55.8372 23.7627 55.7205 24.4673 55.4872 25.102C55.2632 25.7367 54.9365 26.2873 54.5072 26.754C54.4512 26.8193 54.3905 26.88 54.3252 26.936L55.0392 28.014L53.8772 28.784L53.1912 27.748C53.1259 27.776 53.0605 27.8087 52.9952 27.846C52.4165 28.098 51.7679 28.224 51.0492 28.224ZM51.0492 26.768C51.5252 26.768 51.9639 26.6793 52.3652 26.502L51.1612 24.71L52.3092 23.926L53.4712 25.662C53.6205 25.4753 53.7559 25.2653 53.8772 25.032C54.1572 24.472 54.2972 23.7907 54.2972 22.988C54.2972 22.176 54.1525 21.49 53.8632 20.93C53.5832 20.37 53.2005 19.9453 52.7152 19.656C52.2299 19.3573 51.6745 19.208 51.0492 19.208C50.4239 19.208 49.8639 19.3573 49.3692 19.656C48.8839 19.9453 48.5012 20.37 48.2212 20.93C47.9412 21.49 47.8012 22.176 47.8012 22.988C47.8012 23.7907 47.9412 24.4767 48.2212 25.046C48.5012 25.606 48.8839 26.0353 49.3692 26.334C49.8639 26.6233 50.4239 26.768 51.0492 26.768ZM60.0947 28.224C59.2641 28.224 58.6247 27.9767 58.1767 27.482C57.7381 26.978 57.5187 26.292 57.5187 25.424V20.636H59.0167V25.228C59.0167 25.7787 59.1521 26.1847 59.4227 26.446C59.7027 26.7073 60.0621 26.838 60.5007 26.838C60.8741 26.838 61.1914 26.7493 61.4527 26.572C61.7141 26.3853 61.9147 26.138 62.0547 25.83C62.2041 25.522 62.2787 25.186 62.2787 24.822V20.636H63.7767V28H62.3627V27.062H62.2787C62.1574 27.286 61.9847 27.4867 61.7607 27.664C61.5461 27.8413 61.2941 27.9767 61.0047 28.07C60.7247 28.1727 60.4214 28.224 60.0947 28.224ZM68.8165 28.224C68.1072 28.224 67.4865 28.0607 66.9545 27.734C66.4318 27.398 66.0258 26.936 65.7365 26.348C65.4565 25.76 65.3165 25.088 65.3165 24.332C65.3165 23.548 65.4658 22.862 65.7645 22.274C66.0632 21.686 66.4738 21.2287 66.9965 20.902C67.5285 20.5753 68.1352 20.412 68.8165 20.412C69.5632 20.412 70.1838 20.552 70.6785 20.832C71.1825 21.112 71.5605 21.5133 71.8125 22.036C72.0738 22.5587 72.2045 23.184 72.2045 23.912C72.2045 24.0427 72.1998 24.1733 72.1905 24.304C72.1905 24.4253 72.1812 24.5373 72.1625 24.64H66.7865C66.8145 25.06 66.8985 25.424 67.0385 25.732C67.2158 26.1053 67.4632 26.39 67.7805 26.586C68.0978 26.782 68.4618 26.88 68.8725 26.88C69.3858 26.88 69.7825 26.768 70.0625 26.544C70.3518 26.3107 70.5618 26.0213 70.6925 25.676L72.0085 26.026C71.8218 26.6607 71.4672 27.188 70.9445 27.608C70.4218 28.0187 69.7125 28.224 68.8165 28.224ZM66.8425 23.506H70.7205C70.7018 23.226 70.6505 22.974 70.5665 22.75C70.4825 22.526 70.3612 22.3347 70.2025 22.176C70.0438 22.0173 69.8478 21.896 69.6145 21.812C69.3905 21.728 69.1292 21.686 68.8305 21.686C68.4292 21.686 68.0698 21.7887 67.7525 21.994C67.4445 22.19 67.2065 22.484 67.0385 22.876C66.9545 23.0627 66.8892 23.2727 66.8425 23.506ZM73.8169 28V20.636H75.2309V21.63H75.3149C75.4176 21.3967 75.5576 21.1913 75.7349 21.014C75.9216 20.8273 76.1363 20.6827 76.3789 20.58C76.6309 20.4773 76.9016 20.426 77.1909 20.426C77.3683 20.426 77.5129 20.4353 77.6249 20.454C77.7369 20.4727 77.8349 20.496 77.9189 20.524V22.05C77.7883 21.9847 77.6436 21.938 77.4849 21.91C77.3263 21.8727 77.1536 21.854 76.9669 21.854C76.6496 21.854 76.3649 21.938 76.1129 22.106C75.8703 22.274 75.6743 22.5073 75.5249 22.806C75.3849 23.1047 75.3149 23.4407 75.3149 23.814V28H73.8169ZM80.2828 31.094C80.0682 31.094 79.8628 31.0753 79.6668 31.038C79.4708 31.0007 79.2982 30.9493 79.1488 30.884V29.456C79.2422 29.5027 79.3775 29.5587 79.5548 29.624C79.7415 29.6987 79.9515 29.736 80.1848 29.736C80.3808 29.736 80.5535 29.6987 80.7028 29.624C80.8615 29.5493 81.0062 29.4233 81.1368 29.246C81.2768 29.078 81.4122 28.84 81.5428 28.532L81.8368 27.832L78.8968 20.636H80.5768L82.5928 25.83H82.6488L84.6368 20.636H86.2748L82.8308 29.036C82.6348 29.5307 82.4155 29.9273 82.1728 30.226C81.9302 30.534 81.6548 30.7533 81.3468 30.884C81.0482 31.024 80.6935 31.094 80.2828 31.094Z" fill="white"/>
<path d="M31.3125 22.5C31.3125 21.1583 30.8458 20.0208 29.9125 19.0875C28.9792 18.1542 27.8417 17.6875 26.5 17.6875C27.8417 17.6875 28.9792 17.2208 29.9125 16.2875C30.8458 15.3542 31.3125 14.2167 31.3125 12.875C31.3125 14.2167 31.7792 15.3542 32.7125 16.2875C33.6458 17.2208 34.7833 17.6875 36.125 17.6875C34.7833 17.6875 33.6458 18.1542 32.7125 19.0875C31.7792 20.0208 31.3125 21.1583 31.3125 22.5ZM18.625 31.25C18.1437 31.25 17.7318 31.0786 17.3891 30.7359C17.0464 30.3932 16.875 29.9812 16.875 29.5C16.875 29.0187 17.0464 28.6068 17.3891 28.2641C17.7318 27.9214 18.1437 27.75 18.625 27.75H18.8547C18.9203 27.75 18.9896 27.7646 19.0625 27.7937L23.0437 23.8125C23.0146 23.7396 23 23.6703 23 23.6047V23.375C23 22.8938 23.1714 22.4818 23.5141 22.1391C23.8568 21.7964 24.2687 21.625 24.75 21.625C25.2312 21.625 25.6432 21.7964 25.9859 22.1391C26.3286 22.4818 26.5 22.8938 26.5 23.375C26.5 23.4042 26.4854 23.55 26.4563 23.8125L28.6875 26.0437C28.7604 26.0146 28.8297 26 28.8953 26H29.3547C29.4203 26 29.4896 26.0146 29.5625 26.0437L32.6687 22.9375C32.6396 22.8646 32.625 22.7953 32.625 22.7297V22.5C32.625 22.0188 32.7964 21.6068 33.1391 21.2641C33.4818 20.9214 33.8937 20.75 34.375 20.75C34.8562 20.75 35.2682 20.9214 35.6109 21.2641C35.9536 21.6068 36.125 22.0188 36.125 22.5C36.125 22.9812 35.9536 23.3932 35.6109 23.7359C35.2682 24.0786 34.8562 24.25 34.375 24.25H34.1453C34.0797 24.25 34.0104 24.2354 33.9375 24.2063L30.8313 27.3125C30.8604 27.3854 30.875 27.4547 30.875 27.5203V27.75C30.875 28.2312 30.7036 28.6432 30.3609 28.9859C30.0182 29.3286 29.6062 29.5 29.125 29.5C28.6438 29.5 28.2318 29.3286 27.8891 28.9859C27.5464 28.6432 27.375 28.2312 27.375 27.75V27.5203C27.375 27.4547 27.3896 27.3854 27.4187 27.3125L25.1875 25.0813C25.1146 25.1104 25.0453 25.125 24.9797 25.125H24.75C24.7208 25.125 24.575 25.1104 24.3125 25.0813L20.3312 29.0625C20.3604 29.1354 20.375 29.2047 20.375 29.2703V29.5C20.375 29.9812 20.2036 30.3932 19.8609 30.7359C19.5182 31.0786 19.1063 31.25 18.625 31.25Z" fill="white"/>
</svg>
