<svg width="21" height="21" viewBox="0 0 21 21" fill="none" xmlns="http://www.w3.org/2000/svg">
<path d="M15.3125 10.5C15.3125 9.15833 14.8458 8.02083 13.9125 7.0875C12.9792 6.15417 11.8417 5.6875 10.5 5.6875C11.8417 5.6875 12.9792 5.22083 13.9125 4.2875C14.8458 3.35417 15.3125 2.21667 15.3125 0.875C15.3125 2.21667 15.7792 3.35417 16.7125 4.2875C17.6458 5.22083 18.7833 5.6875 20.125 5.6875C18.7833 5.6875 17.6458 6.15417 16.7125 7.0875C15.7792 8.02083 15.3125 9.15833 15.3125 10.5ZM2.625 19.25C2.14375 19.25 1.73177 19.0786 1.38906 18.7359C1.04635 18.3932 0.875 17.9812 0.875 17.5C0.875 17.0187 1.04635 16.6068 1.38906 16.2641C1.73177 15.9214 2.14375 15.75 2.625 15.75H2.85469C2.92031 15.75 2.98958 15.7646 3.0625 15.7937L7.04375 11.8125C7.01458 11.7396 7 11.6703 7 11.6047V11.375C7 10.8938 7.17135 10.4818 7.51406 10.1391C7.85677 9.79635 8.26875 9.625 8.75 9.625C9.23125 9.625 9.64323 9.79635 9.98594 10.1391C10.3286 10.4818 10.5 10.8938 10.5 11.375C10.5 11.4042 10.4854 11.55 10.4563 11.8125L12.6875 14.0437C12.7604 14.0146 12.8297 14 12.8953 14H13.3547C13.4203 14 13.4896 14.0146 13.5625 14.0437L16.6687 10.9375C16.6396 10.8646 16.625 10.7953 16.625 10.7297V10.5C16.625 10.0188 16.7964 9.60677 17.1391 9.26406C17.4818 8.92135 17.8937 8.75 18.375 8.75C18.8562 8.75 19.2682 8.92135 19.6109 9.26406C19.9536 9.60677 20.125 10.0188 20.125 10.5C20.125 10.9812 19.9536 11.3932 19.6109 11.7359C19.2682 12.0786 18.8562 12.25 18.375 12.25H18.1453C18.0797 12.25 18.0104 12.2354 17.9375 12.2063L14.8313 15.3125C14.8604 15.3854 14.875 15.4547 14.875 15.5203V15.75C14.875 16.2312 14.7036 16.6432 14.3609 16.9859C14.0182 17.3286 13.6062 17.5 13.125 17.5C12.6438 17.5 12.2318 17.3286 11.8891 16.9859C11.5464 16.6432 11.375 16.2312 11.375 15.75V15.5203C11.375 15.4547 11.3896 15.3854 11.4187 15.3125L9.1875 13.0813C9.11458 13.1104 9.04531 13.125 8.97969 13.125H8.75C8.72083 13.125 8.575 13.1104 8.3125 13.0813L4.33125 17.0625C4.36042 17.1354 4.375 17.2047 4.375 17.2703V17.5C4.375 17.9812 4.20365 18.3932 3.86094 18.7359C3.51823 19.0786 3.10625 19.25 2.625 19.25Z" fill="#4D88FF"/>
</svg>
