<svg width="45" height="47" viewBox="0 0 45 47" fill="none" xmlns="http://www.w3.org/2000/svg">
<rect width="45" height="47" rx="10" fill="#4D88FF"/>
<path d="M31.8667 34.5L24.5167 27.15C23.9333 27.6167 23.2625 27.9861 22.5042 28.2583C21.7458 28.5305 20.9389 28.6667 20.0833 28.6667C17.9639 28.6667 16.1701 27.9326 14.7021 26.4646C13.234 24.9965 12.5 23.2028 12.5 21.0833C12.5 18.9639 13.234 17.1701 14.7021 15.7021C16.1701 14.234 17.9639 13.5 20.0833 13.5C20.6861 13.5 21.2694 13.5632 21.8333 13.6896C22.3972 13.816 22.9319 14.0055 23.4375 14.2583L21.6292 16.0667C21.3764 15.9889 21.1236 15.9305 20.8708 15.8917C20.6181 15.8528 20.3556 15.8333 20.0833 15.8333C18.625 15.8333 17.3854 16.3437 16.3646 17.3646C15.3438 18.3854 14.8333 19.625 14.8333 21.0833C14.8333 22.5417 15.3438 23.7812 16.3646 24.8021C17.3854 25.8229 18.625 26.3333 20.0833 26.3333C21.4444 26.3333 22.616 25.891 23.5979 25.0062C24.5799 24.1215 25.1486 23.0083 25.3042 21.6667H27.6375C27.5792 22.4055 27.4187 23.1055 27.1562 23.7667C26.8938 24.4278 26.5583 25.0111 26.15 25.5167L33.5 32.8667L31.8667 34.5ZM29.4167 24C29.4167 22.2111 28.7944 20.6944 27.55 19.45C26.3056 18.2055 24.7889 17.5833 23 17.5833C24.7889 17.5833 26.3056 16.9611 27.55 15.7167C28.7944 14.4722 29.4167 12.9555 29.4167 11.1667C29.4167 12.9555 30.0389 14.4722 31.2833 15.7167C32.5278 16.9611 34.0444 17.5833 35.8333 17.5833C34.0444 17.5833 32.5278 18.2055 31.2833 19.45C30.0389 20.6944 29.4167 22.2111 29.4167 24Z" fill="white"/>
</svg>
