<svg width="40" height="40" viewBox="0 0 40 40" fill="none" xmlns="http://www.w3.org/2000/svg">
<circle cx="20" cy="20" r="20" fill="#0B57D0"/>
<g clip-path="url(#clip0_277_1802)">
<path d="M24 31C23.1667 31 22.4583 30.7083 21.875 30.125C21.2917 29.5417 21 28.8333 21 28C21 27.8833 21.0083 27.7625 21.025 27.6375C21.0417 27.5125 21.0667 27.4 21.1 27.3L14.05 23.2C13.7667 23.45 13.45 23.6458 13.1 23.7875C12.75 23.9292 12.3833 24 12 24C11.1667 24 10.4583 23.7083 9.875 23.125C9.29167 22.5417 9 21.8333 9 21C9 20.1667 9.29167 19.4583 9.875 18.875C10.4583 18.2917 11.1667 18 12 18C12.3833 18 12.75 18.0708 13.1 18.2125C13.45 18.3542 13.7667 18.55 14.05 18.8L21.1 14.7C21.0667 14.6 21.0417 14.4875 21.025 14.3625C21.0083 14.2375 21 14.1167 21 14C21 13.1667 21.2917 12.4583 21.875 11.875C22.4583 11.2917 23.1667 11 24 11C24.8333 11 25.5417 11.2917 26.125 11.875C26.7083 12.4583 27 13.1667 27 14C27 14.8333 26.7083 15.5417 26.125 16.125C25.5417 16.7083 24.8333 17 24 17C23.6167 17 23.25 16.9292 22.9 16.7875C22.55 16.6458 22.2333 16.45 21.95 16.2L14.9 20.3C14.9333 20.4 14.9583 20.5125 14.975 20.6375C14.9917 20.7625 15 20.8833 15 21C15 21.1167 14.9917 21.2375 14.975 21.3625C14.9583 21.4875 14.9333 21.6 14.9 21.7L21.95 25.8C22.2333 25.55 22.55 25.3542 22.9 25.2125C23.25 25.0708 23.6167 25 24 25C24.8333 25 25.5417 25.2917 26.125 25.875C26.7083 26.4583 27 27.1667 27 28C27 28.8333 26.7083 29.5417 26.125 30.125C25.5417 30.7083 24.8333 31 24 31ZM24 15C24.2833 15 24.5208 14.9042 24.7125 14.7125C24.9042 14.5208 25 14.2833 25 14C25 13.7167 24.9042 13.4792 24.7125 13.2875C24.5208 13.0958 24.2833 13 24 13C23.7167 13 23.4792 13.0958 23.2875 13.2875C23.0958 13.4792 23 13.7167 23 14C23 14.2833 23.0958 14.5208 23.2875 14.7125C23.4792 14.9042 23.7167 15 24 15ZM12 22C12.2833 22 12.5208 21.9042 12.7125 21.7125C12.9042 21.5208 13 21.2833 13 21C13 20.7167 12.9042 20.4792 12.7125 20.2875C12.5208 20.0958 12.2833 20 12 20C11.7167 20 11.4792 20.0958 11.2875 20.2875C11.0958 20.4792 11 20.7167 11 21C11 21.2833 11.0958 21.5208 11.2875 21.7125C11.4792 21.9042 11.7167 22 12 22ZM24 29C24.2833 29 24.5208 28.9042 24.7125 28.7125C24.9042 28.5208 25 28.2833 25 28C25 27.7167 24.9042 27.4792 24.7125 27.2875C24.5208 27.0958 24.2833 27 24 27C23.7167 27 23.4792 27.0958 23.2875 27.2875C23.0958 27.4792 23 27.7167 23 28C23 28.2833 23.0958 28.5208 23.2875 28.7125C23.4792 28.9042 23.7167 29 24 29Z" fill="#FEFDFE"/>
</g>
<defs>
<clipPath id="clip0_277_1802">
<rect width="24" height="24" fill="white" transform="translate(6 9)"/>
</clipPath>
</defs>
</svg>
