<svg width="21" height="21" viewBox="0 0 21 21" fill="none" xmlns="http://www.w3.org/2000/svg">
<g clip-path="url(#clip0_1_2761)">
<path d="M3.85 14.875C2.94583 14.3354 2.22396 13.6062 1.68437 12.6875C1.14479 11.7688 0.875 10.7479 0.875 9.625C0.875 7.91875 1.46927 6.47135 2.65781 5.28281C3.84635 4.09427 5.29375 3.5 7 3.5C8.70625 3.5 10.1536 4.09427 11.3422 5.28281C12.5307 6.47135 13.125 7.91875 13.125 9.625C13.125 10.7479 12.8552 11.7688 12.3156 12.6875C11.776 13.6062 11.0542 14.3354 10.15 14.875H3.85ZM4.375 13.125H9.625C10.1792 12.7021 10.6094 12.188 10.9156 11.5828C11.2219 10.9776 11.375 10.325 11.375 9.625C11.375 8.41458 10.9484 7.38281 10.0953 6.52969C9.24219 5.67656 8.21042 5.25 7 5.25C5.78958 5.25 4.75781 5.67656 3.90469 6.52969C3.05156 7.38281 2.625 8.41458 2.625 9.625C2.625 10.325 2.77812 10.9776 3.08437 11.5828C3.39062 12.188 3.82083 12.7021 4.375 13.125ZM3.85 17.5V15.75H10.15V17.5H3.85ZM7 20.125C6.51875 20.125 6.10677 19.9536 5.76406 19.6109C5.42135 19.2682 5.25 18.8562 5.25 18.375H8.75C8.75 18.8562 8.57865 19.2682 8.23594 19.6109C7.89323 19.9536 7.48125 20.125 7 20.125ZM16.1875 8.77187C16.1875 7.67812 15.801 6.74479 15.0281 5.97187C14.2552 5.19896 13.3219 4.8125 12.2281 4.8125C13.3219 4.8125 14.2552 4.42969 15.0281 3.66406C15.801 2.89844 16.1875 1.96875 16.1875 0.875C16.1875 1.96875 16.5703 2.89844 17.3359 3.66406C18.1016 4.42969 19.0312 4.8125 20.125 4.8125C19.0312 4.8125 18.1016 5.19896 17.3359 5.97187C16.5703 6.74479 16.1875 7.67812 16.1875 8.77187Z" fill="#525252"/>
</g>
<defs>
<clipPath id="clip0_1_2761">
<rect width="21" height="21" fill="white"/>
</clipPath>
</defs>
</svg>
