<svg width="40" height="40" viewBox="0 0 40 40" fill="none" xmlns="http://www.w3.org/2000/svg">
<circle cx="20" cy="20" r="20" fill="#F8685C"/>
<path d="M14.4643 12.5H24.2857V24.6875L18.0357 31.25L16.9196 30.0781C16.8155 29.9688 16.7299 29.8203 16.6629 29.6328C16.596 29.4453 16.5625 29.2656 16.5625 29.0938V28.7656L17.5446 24.6875H11.7857C11.3095 24.6875 10.8929 24.5 10.5357 24.125C10.1786 23.75 10 23.3125 10 22.8125V20.9375C10 20.8281 10.0149 20.7109 10.0446 20.5859C10.0744 20.4609 10.1042 20.3438 10.1339 20.2344L12.8125 13.625C12.9464 13.3125 13.1696 13.0469 13.4821 12.8281C13.7946 12.6094 14.122 12.5 14.4643 12.5ZM22.5 14.375H14.4643L11.7857 20.9375V22.8125H19.8214L18.6161 27.9688L22.5 23.8906V14.375ZM24.2857 24.6875V22.8125H26.9643V14.375H24.2857V12.5H28.75V24.6875H24.2857Z" fill="white"/>
</svg>
