<svg width="40" height="40" viewBox="0 0 40 40" fill="none" xmlns="http://www.w3.org/2000/svg">
<circle cx="20" cy="20" r="20" fill="#4D88FF"/>
<path d="M25.5357 28.75H15.7143V17.375L21.9643 11.25L23.0804 12.3438C23.1845 12.4458 23.2701 12.5844 23.3371 12.7594C23.404 12.9344 23.4375 13.1021 23.4375 13.2625V13.5687L22.4554 17.375H28.2143C28.6905 17.375 29.1071 17.55 29.4643 17.9C29.8214 18.25 30 18.6583 30 19.125V20.875C30 20.9771 29.9851 21.0865 29.9554 21.2031C29.9256 21.3198 29.8958 21.4292 29.8661 21.5312L27.1875 27.7C27.0536 27.9917 26.8304 28.2396 26.5179 28.4438C26.2054 28.6479 25.878 28.75 25.5357 28.75ZM17.5 27H25.5357L28.2143 20.875V19.125H20.1786L21.3839 14.3125L17.5 18.1188V27ZM15.7143 17.375V19.125H13.0357V27H15.7143V28.75H11.25V17.375H15.7143Z" fill="white"/>
</svg>
