<svg fill="#000000" width="800px" height="800px" viewBox="0 0 32 32" version="1.1" xmlns="http://www.w3.org/2000/svg">
<title>m</title>
<path d="M27.232 3.993h-0.799c-0 0-0 0-0.001 0-0.288 0-0.541 0.153-0.681 0.381l-0.002 0.003-9.75 16.058-9.748-16.058c-0.142-0.232-0.395-0.385-0.683-0.385-0 0-0 0-0.001 0h-0.799c-0.442 0-0.8 0.358-0.8 0.8v22.4c0 0.442 0.358 0.8 0.8 0.801h0.928c0.442-0.001 0.8-0.359 0.8-0.801v0-17.587l8.437 13.905c0.142 0.233 0.395 0.387 0.684 0.387h0.736c0.288-0 0.541-0.153 0.682-0.381l0.002-0.003 8.467-13.915v17.595c0.001 0.442 0.359 0.8 0.801 0.801h0.928c0.442-0.001 0.8-0.359 0.801-0.801v-22.4c-0.001-0.442-0.359-0.8-0.801-0.8v0z"></path>
</svg>